<?xml version="1.0" encoding="UTF-8" standalone="no"?>
<!DOCTYPE svg PUBLIC "-//W3C//DTD SVG 1.1//EN"
 "http://www.w3.org/Graphics/SVG/1.1/DTD/svg11.dtd">
<!-- Generated by graphviz version 2.47.3 (20210619.1520)
 -->
<!-- Title: dependencies Pages: 1 -->
<svg width="483pt" height="174pt"
 viewBox="0.00 0.00 483.00 173.80" xmlns="http://www.w3.org/2000/svg" xmlns:xlink="http://www.w3.org/1999/xlink">
<g id="graph0" class="graph" transform="scale(1 1) rotate(0) translate(4 169.8)">
<title>dependencies</title>
<polygon fill="white" stroke="transparent" points="-4,4 -4,-169.8 479,-169.8 479,4 -4,4"/>
<text text-anchor="middle" x="237.5" y="-8.2" font-family="sans-serif" font-size="14.00">dependencies</text>
<g id="clust1" class="cluster">
<title>cluster_SampleModule</title>
<polygon fill="none" stroke="black" stroke-dasharray="1,5" points="8,-32.8 8,-157.8 467,-157.8 467,-32.8 8,-32.8"/>
</g>
<g id="clust2" class="cluster">
<title>cluster_SampleModule_declarations</title>
<polygon fill="none" stroke="black" points="186,-40.8 186,-92.8 459,-92.8 459,-40.8 186,-40.8"/>
</g>
<g id="clust5" class="cluster">
<title>cluster_SampleModule_imports</title>
<polygon fill="none" stroke="black" points="16,-40.8 16,-92.8 178,-92.8 178,-40.8 16,-40.8"/>
</g>
<!-- DemoComponent -->
<g id="node1" class="node">
<title>DemoComponent</title>
<polygon fill="#ffffb3" stroke="black" points="450.55,-84.8 335.45,-84.8 335.45,-48.8 450.55,-48.8 450.55,-84.8"/>
<text text-anchor="middle" x="393" y="-62.6" font-family="Times,serif" font-size="14.00">DemoComponent</text>
</g>
<!-- SampleModule -->
<g id="node3" class="node">
<title>SampleModule</title>
<polygon fill="#8dd3c7" stroke="black" points="306.54,-149.8 303.54,-153.8 282.54,-153.8 279.54,-149.8 205.46,-149.8 205.46,-113.8 306.54,-113.8 306.54,-149.8"/>
<text text-anchor="middle" x="256" y="-127.6" font-family="Times,serif" font-size="14.00">SampleModule</text>
</g>
<!-- DemoComponent&#45;&gt;SampleModule -->
<g id="edge1" class="edge">
<title>DemoComponent&#45;&gt;SampleModule</title>
<path fill="none" stroke="black" d="M393,-84.91C393,-104.14 393,-131.8 393,-131.8 393,-131.8 316.62,-131.8 316.62,-131.8"/>
<polygon fill="black" stroke="black" points="316.62,-128.3 306.62,-131.8 316.62,-135.3 316.62,-128.3"/>
</g>
<!-- SampleComponent -->
<g id="node2" class="node">
<title>SampleComponent</title>
<polygon fill="#ffffb3" stroke="black" points="317.83,-84.8 194.17,-84.8 194.17,-48.8 317.83,-48.8 317.83,-84.8"/>
<text text-anchor="middle" x="256" y="-62.6" font-family="Times,serif" font-size="14.00">SampleComponent</text>
</g>
<!-- SampleComponent&#45;&gt;SampleModule -->
<g id="edge2" class="edge">
<title>SampleComponent&#45;&gt;SampleModule</title>
<path fill="none" stroke="black" d="M256,-84.91C256,-84.91 256,-103.79 256,-103.79"/>
<polygon fill="black" stroke="black" points="252.5,-103.79 256,-113.79 259.5,-103.79 252.5,-103.79"/>
</g>
<!-- SampleRoutingModule -->
<g id="node4" class="node">
<title>SampleRoutingModule</title>
<polygon fill="#8dd3c7" stroke="black" points="170.16,-84.8 167.16,-88.8 146.16,-88.8 143.16,-84.8 23.84,-84.8 23.84,-48.8 170.16,-48.8 170.16,-84.8"/>
<text text-anchor="middle" x="97" y="-62.6" font-family="Times,serif" font-size="14.00">SampleRoutingModule</text>
</g>
<!-- SampleRoutingModule&#45;&gt;SampleModule -->
<g id="edge3" class="edge">
<title>SampleRoutingModule&#45;&gt;SampleModule</title>
<path fill="none" stroke="black" d="M97,-84.91C97,-104.14 97,-131.8 97,-131.8 97,-131.8 195.25,-131.8 195.25,-131.8"/>
<polygon fill="black" stroke="black" points="195.25,-135.3 205.25,-131.8 195.25,-128.3 195.25,-135.3"/>
</g>
</g>
</svg>
