<?xml version="1.0" encoding="UTF-8" standalone="no"?>
<!DOCTYPE svg PUBLIC "-//W3C//DTD SVG 1.1//EN"
 "http://www.w3.org/Graphics/SVG/1.1/DTD/svg11.dtd">
<!-- Generated by graphviz version 2.47.3 (20210619.1520)
 -->
<!-- Title: dependencies Pages: 1 -->
<svg width="999pt" height="247pt"
 viewBox="0.00 0.00 999.00 246.80" xmlns="http://www.w3.org/2000/svg" xmlns:xlink="http://www.w3.org/1999/xlink">
<g id="graph0" class="graph" transform="scale(1 1) rotate(0) translate(4 242.8)">
<title>dependencies</title>
<polygon fill="white" stroke="transparent" points="-4,4 -4,-242.8 995,-242.8 995,4 -4,4"/>
<text text-anchor="middle" x="495.5" y="-8.2" font-family="sans-serif" font-size="14.00">dependencies</text>
<g id="clust1" class="cluster">
<title>cluster_AppModule</title>
<polygon fill="none" stroke="black" stroke-dasharray="1,5" points="8,-32.8 8,-230.8 983,-230.8 983,-32.8 8,-32.8"/>
</g>
<g id="clust6" class="cluster">
<title>cluster_AppModule_bootstrap</title>
<polygon fill="none" stroke="black" points="431,-170.8 431,-222.8 555,-222.8 555,-170.8 431,-170.8"/>
</g>
<g id="clust4" class="cluster">
<title>cluster_AppModule_imports</title>
<polygon fill="none" stroke="black" points="831,-40.8 831,-92.8 975,-92.8 975,-40.8 831,-40.8"/>
</g>
<g id="clust7" class="cluster">
<title>cluster_AppModule_providers</title>
<polygon fill="none" stroke="black" points="146,-40.8 146,-92.8 823,-92.8 823,-40.8 146,-40.8"/>
</g>
<g id="clust2" class="cluster">
<title>cluster_AppModule_declarations</title>
<polygon fill="none" stroke="black" points="16,-40.8 16,-92.8 138,-92.8 138,-40.8 16,-40.8"/>
</g>
<!-- AppComponent -->
<g id="node1" class="node">
<title>AppComponent</title>
<polygon fill="#ffffb3" stroke="black" points="129.94,-84.8 24.06,-84.8 24.06,-48.8 129.94,-48.8 129.94,-84.8"/>
<text text-anchor="middle" x="77" y="-62.6" font-family="Times,serif" font-size="14.00">AppComponent</text>
</g>
<!-- AppModule -->
<g id="node2" class="node">
<title>AppModule</title>
<polygon fill="#8dd3c7" stroke="black" points="534.66,-149.8 531.66,-153.8 510.66,-153.8 507.66,-149.8 451.34,-149.8 451.34,-113.8 534.66,-113.8 534.66,-149.8"/>
<text text-anchor="middle" x="493" y="-127.6" font-family="Times,serif" font-size="14.00">AppModule</text>
</g>
<!-- AppComponent&#45;&gt;AppModule -->
<g id="edge1" class="edge">
<title>AppComponent&#45;&gt;AppModule</title>
<path fill="none" stroke="black" d="M77,-85.08C77,-106.12 77,-137.8 77,-137.8 77,-137.8 441.21,-137.8 441.21,-137.8"/>
<polygon fill="black" stroke="black" points="441.21,-141.3 451.21,-137.8 441.21,-134.3 441.21,-141.3"/>
</g>
<!-- AppComponent  -->
<g id="node4" class="node">
<title>AppComponent </title>
<polygon fill="#80b1d3" stroke="black" points="547.44,-214.8 438.56,-214.8 438.56,-178.8 547.44,-178.8 547.44,-214.8"/>
<text text-anchor="middle" x="493" y="-192.6" font-family="Times,serif" font-size="14.00">AppComponent </text>
</g>
<!-- AppModule&#45;&gt;AppComponent  -->
<g id="edge3" class="edge">
<title>AppModule&#45;&gt;AppComponent </title>
<path fill="none" stroke="black" stroke-dasharray="1,5" d="M493,-149.91C493,-149.91 493,-168.79 493,-168.79"/>
<polygon fill="black" stroke="black" points="489.5,-168.79 493,-178.79 496.5,-168.79 489.5,-168.79"/>
</g>
<!-- AppRoutingModule -->
<g id="node3" class="node">
<title>AppRoutingModule</title>
<polygon fill="#8dd3c7" stroke="black" points="967.27,-84.8 964.27,-88.8 943.27,-88.8 940.27,-84.8 838.73,-84.8 838.73,-48.8 967.27,-48.8 967.27,-84.8"/>
<text text-anchor="middle" x="903" y="-62.6" font-family="Times,serif" font-size="14.00">AppRoutingModule</text>
</g>
<!-- AppRoutingModule&#45;&gt;AppModule -->
<g id="edge2" class="edge">
<title>AppRoutingModule&#45;&gt;AppModule</title>
<path fill="none" stroke="black" d="M903,-85.08C903,-106.12 903,-137.8 903,-137.8 903,-137.8 544.95,-137.8 544.95,-137.8"/>
<polygon fill="black" stroke="black" points="544.95,-134.3 534.95,-137.8 544.95,-141.3 544.95,-134.3"/>
</g>
<!-- HttpService -->
<g id="node5" class="node">
<title>HttpService</title>
<ellipse fill="#fdb462" stroke="black" cx="758" cy="-66.8" rx="57.32" ry="18"/>
<text text-anchor="middle" x="758" y="-62.6" font-family="Times,serif" font-size="14.00">HttpService</text>
</g>
<!-- HttpService&#45;&gt;AppModule -->
<g id="edge4" class="edge">
<title>HttpService&#45;&gt;AppModule</title>
<path fill="none" stroke="black" d="M758,-84.82C758,-102.17 758,-125.8 758,-125.8 758,-125.8 544.7,-125.8 544.7,-125.8"/>
<polygon fill="black" stroke="black" points="544.7,-122.3 534.7,-125.8 544.7,-129.3 544.7,-122.3"/>
</g>
<!-- LocalStorageService -->
<g id="node6" class="node">
<title>LocalStorageService</title>
<ellipse fill="#fdb462" stroke="black" cx="591" cy="-66.8" rx="91.45" ry="18"/>
<text text-anchor="middle" x="591" y="-62.6" font-family="Times,serif" font-size="14.00">LocalStorageService</text>
</g>
<!-- LocalStorageService&#45;&gt;AppModule -->
<g id="edge5" class="edge">
<title>LocalStorageService&#45;&gt;AppModule</title>
<path fill="none" stroke="black" d="M517.18,-77.53C517.18,-77.53 517.18,-103.67 517.18,-103.67"/>
<polygon fill="black" stroke="black" points="513.68,-103.67 517.18,-113.67 520.68,-103.67 513.68,-103.67"/>
</g>
<!-- NotificationService -->
<g id="node7" class="node">
<title>NotificationService</title>
<ellipse fill="#fdb462" stroke="black" cx="395" cy="-66.8" rx="86.81" ry="18"/>
<text text-anchor="middle" x="395" y="-62.6" font-family="Times,serif" font-size="14.00">NotificationService</text>
</g>
<!-- NotificationService&#45;&gt;AppModule -->
<g id="edge6" class="edge">
<title>NotificationService&#45;&gt;AppModule</title>
<path fill="none" stroke="black" d="M466.41,-77.24C466.41,-77.24 466.41,-103.77 466.41,-103.77"/>
<polygon fill="black" stroke="black" points="462.91,-103.77 466.41,-113.77 469.91,-103.77 462.91,-103.77"/>
</g>
<!-- httpInterceptor -->
<g id="node8" class="node">
<title>httpInterceptor</title>
<ellipse fill="#fdb462" stroke="black" cx="222" cy="-66.8" rx="68.34" ry="18"/>
<text text-anchor="middle" x="222" y="-62.6" font-family="Times,serif" font-size="14.00">httpInterceptor</text>
</g>
<!-- httpInterceptor&#45;&gt;AppModule -->
<g id="edge7" class="edge">
<title>httpInterceptor&#45;&gt;AppModule</title>
<path fill="none" stroke="black" d="M222,-84.82C222,-102.17 222,-125.8 222,-125.8 222,-125.8 441.25,-125.8 441.25,-125.8"/>
<polygon fill="black" stroke="black" points="441.25,-129.3 451.25,-125.8 441.25,-122.3 441.25,-129.3"/>
</g>
</g>
</svg>
