<?xml version="1.0" encoding="UTF-8" standalone="no"?>
<!DOCTYPE svg PUBLIC "-//W3C//DTD SVG 1.1//EN"
 "http://www.w3.org/Graphics/SVG/1.1/DTD/svg11.dtd">
<!-- Generated by graphviz version 2.47.3 (20210619.1520)
 -->
<!-- Title: dependencies Pages: 1 -->
<svg width="2352pt" height="247pt"
 viewBox="0.00 0.00 2352.00 246.80" xmlns="http://www.w3.org/2000/svg" xmlns:xlink="http://www.w3.org/1999/xlink">
<g id="graph0" class="graph" transform="scale(1 1) rotate(0) translate(4 242.8)">
<title>dependencies</title>
<polygon fill="white" stroke="transparent" points="-4,4 -4,-242.8 2348,-242.8 2348,4 -4,4"/>
<text text-anchor="middle" x="1172" y="-8.2" font-family="sans-serif" font-size="14.00">dependencies</text>
<g id="clust1" class="cluster">
<title>cluster_AppModule</title>
<polygon fill="none" stroke="black" stroke-dasharray="1,5" points="8,-32.8 8,-230.8 983,-230.8 983,-32.8 8,-32.8"/>
</g>
<g id="clust2" class="cluster">
<title>cluster_AppModule_declarations</title>
<polygon fill="none" stroke="black" points="853,-40.8 853,-92.8 975,-92.8 975,-40.8 853,-40.8"/>
</g>
<g id="clust4" class="cluster">
<title>cluster_AppModule_imports</title>
<polygon fill="none" stroke="black" points="701,-40.8 701,-92.8 845,-92.8 845,-40.8 701,-40.8"/>
</g>
<g id="clust6" class="cluster">
<title>cluster_AppModule_bootstrap</title>
<polygon fill="none" stroke="black" points="482,-170.8 482,-222.8 606,-222.8 606,-170.8 482,-170.8"/>
</g>
<g id="clust7" class="cluster">
<title>cluster_AppModule_providers</title>
<polygon fill="none" stroke="black" points="16,-40.8 16,-92.8 693,-92.8 693,-40.8 16,-40.8"/>
</g>
<g id="clust14" class="cluster">
<title>cluster_AuthModule</title>
<polygon fill="none" stroke="black" stroke-dasharray="1,5" points="991,-32.8 991,-157.8 1561,-157.8 1561,-32.8 991,-32.8"/>
</g>
<g id="clust15" class="cluster">
<title>cluster_AuthModule_declarations</title>
<polygon fill="none" stroke="black" points="1155,-40.8 1155,-92.8 1553,-92.8 1553,-40.8 1155,-40.8"/>
</g>
<g id="clust19" class="cluster">
<title>cluster_AuthModule_imports</title>
<polygon fill="none" stroke="black" points="999,-40.8 999,-92.8 1147,-92.8 1147,-40.8 999,-40.8"/>
</g>
<g id="clust29" class="cluster">
<title>cluster_ErrorModule</title>
<polygon fill="none" stroke="black" stroke-dasharray="1,5" points="1569,-32.8 1569,-157.8 1869,-157.8 1869,-32.8 1569,-32.8"/>
</g>
<g id="clust30" class="cluster">
<title>cluster_ErrorModule_declarations</title>
<polygon fill="none" stroke="black" points="1735,-40.8 1735,-92.8 1861,-92.8 1861,-40.8 1735,-40.8"/>
</g>
<g id="clust32" class="cluster">
<title>cluster_ErrorModule_imports</title>
<polygon fill="none" stroke="black" points="1577,-40.8 1577,-92.8 1727,-92.8 1727,-40.8 1577,-40.8"/>
</g>
<g id="clust42" class="cluster">
<title>cluster_SampleModule</title>
<polygon fill="none" stroke="black" stroke-dasharray="1,5" points="1877,-32.8 1877,-157.8 2336,-157.8 2336,-32.8 1877,-32.8"/>
</g>
<g id="clust43" class="cluster">
<title>cluster_SampleModule_declarations</title>
<polygon fill="none" stroke="black" points="2055,-40.8 2055,-92.8 2328,-92.8 2328,-40.8 2055,-40.8"/>
</g>
<g id="clust46" class="cluster">
<title>cluster_SampleModule_imports</title>
<polygon fill="none" stroke="black" points="1885,-40.8 1885,-92.8 2047,-92.8 2047,-40.8 1885,-40.8"/>
</g>
<!-- AppComponent -->
<g id="node1" class="node">
<title>AppComponent</title>
<polygon fill="#ffffb3" stroke="black" points="966.94,-84.8 861.06,-84.8 861.06,-48.8 966.94,-48.8 966.94,-84.8"/>
<text text-anchor="middle" x="914" y="-62.6" font-family="Times,serif" font-size="14.00">AppComponent</text>
</g>
<!-- AppModule -->
<g id="node2" class="node">
<title>AppModule</title>
<polygon fill="#8dd3c7" stroke="black" points="585.66,-149.8 582.66,-153.8 561.66,-153.8 558.66,-149.8 502.34,-149.8 502.34,-113.8 585.66,-113.8 585.66,-149.8"/>
<text text-anchor="middle" x="544" y="-127.6" font-family="Times,serif" font-size="14.00">AppModule</text>
</g>
<!-- AppComponent&#45;&gt;AppModule -->
<g id="edge1" class="edge">
<title>AppComponent&#45;&gt;AppModule</title>
<path fill="none" stroke="black" d="M914,-84.91C914,-104.14 914,-131.8 914,-131.8 914,-131.8 595.72,-131.8 595.72,-131.8"/>
<polygon fill="black" stroke="black" points="595.72,-128.3 585.72,-131.8 595.72,-135.3 595.72,-128.3"/>
</g>
<!-- AppComponent  -->
<g id="node4" class="node">
<title>AppComponent </title>
<polygon fill="#80b1d3" stroke="black" points="598.44,-214.8 489.56,-214.8 489.56,-178.8 598.44,-178.8 598.44,-214.8"/>
<text text-anchor="middle" x="544" y="-192.6" font-family="Times,serif" font-size="14.00">AppComponent </text>
</g>
<!-- AppModule&#45;&gt;AppComponent  -->
<g id="edge3" class="edge">
<title>AppModule&#45;&gt;AppComponent </title>
<path fill="none" stroke="black" stroke-dasharray="1,5" d="M544,-149.91C544,-149.91 544,-168.79 544,-168.79"/>
<polygon fill="black" stroke="black" points="540.5,-168.79 544,-178.79 547.5,-168.79 540.5,-168.79"/>
</g>
<!-- AppRoutingModule -->
<g id="node3" class="node">
<title>AppRoutingModule</title>
<polygon fill="#8dd3c7" stroke="black" points="837.27,-84.8 834.27,-88.8 813.27,-88.8 810.27,-84.8 708.73,-84.8 708.73,-48.8 837.27,-48.8 837.27,-84.8"/>
<text text-anchor="middle" x="773" y="-62.6" font-family="Times,serif" font-size="14.00">AppRoutingModule</text>
</g>
<!-- AppRoutingModule&#45;&gt;AppModule -->
<g id="edge2" class="edge">
<title>AppRoutingModule&#45;&gt;AppModule</title>
<path fill="none" stroke="black" d="M773,-84.83C773,-101.2 773,-122.8 773,-122.8 773,-122.8 595.74,-122.8 595.74,-122.8"/>
<polygon fill="black" stroke="black" points="595.74,-119.3 585.74,-122.8 595.74,-126.3 595.74,-119.3"/>
</g>
<!-- HttpService -->
<g id="node5" class="node">
<title>HttpService</title>
<ellipse fill="#fdb462" stroke="black" cx="628" cy="-66.8" rx="57.32" ry="18"/>
<text text-anchor="middle" x="628" y="-62.6" font-family="Times,serif" font-size="14.00">HttpService</text>
</g>
<!-- HttpService&#45;&gt;AppModule -->
<g id="edge4" class="edge">
<title>HttpService&#45;&gt;AppModule</title>
<path fill="none" stroke="black" d="M578.33,-75.84C578.33,-75.84 578.33,-103.76 578.33,-103.76"/>
<polygon fill="black" stroke="black" points="574.83,-103.76 578.33,-113.76 581.83,-103.76 574.83,-103.76"/>
</g>
<!-- LocalStorageService -->
<g id="node6" class="node">
<title>LocalStorageService</title>
<ellipse fill="#fdb462" stroke="black" cx="461" cy="-66.8" rx="91.45" ry="18"/>
<text text-anchor="middle" x="461" y="-62.6" font-family="Times,serif" font-size="14.00">LocalStorageService</text>
</g>
<!-- LocalStorageService&#45;&gt;AppModule -->
<g id="edge5" class="edge">
<title>LocalStorageService&#45;&gt;AppModule</title>
<path fill="none" stroke="black" d="M527.32,-79.33C527.32,-79.33 527.32,-103.65 527.32,-103.65"/>
<polygon fill="black" stroke="black" points="523.82,-103.65 527.32,-113.65 530.82,-103.65 523.82,-103.65"/>
</g>
<!-- NotificationService -->
<g id="node7" class="node">
<title>NotificationService</title>
<ellipse fill="#fdb462" stroke="black" cx="265" cy="-66.8" rx="86.81" ry="18"/>
<text text-anchor="middle" x="265" y="-62.6" font-family="Times,serif" font-size="14.00">NotificationService</text>
</g>
<!-- NotificationService&#45;&gt;AppModule -->
<g id="edge6" class="edge">
<title>NotificationService&#45;&gt;AppModule</title>
<path fill="none" stroke="black" d="M265,-84.82C265,-102.17 265,-125.8 265,-125.8 265,-125.8 492.23,-125.8 492.23,-125.8"/>
<polygon fill="black" stroke="black" points="492.23,-129.3 502.23,-125.8 492.23,-122.3 492.23,-129.3"/>
</g>
<!-- httpInterceptor -->
<g id="node8" class="node">
<title>httpInterceptor</title>
<ellipse fill="#fdb462" stroke="black" cx="92" cy="-66.8" rx="68.34" ry="18"/>
<text text-anchor="middle" x="92" y="-62.6" font-family="Times,serif" font-size="14.00">httpInterceptor</text>
</g>
<!-- httpInterceptor&#45;&gt;AppModule -->
<g id="edge7" class="edge">
<title>httpInterceptor&#45;&gt;AppModule</title>
<path fill="none" stroke="black" d="M92,-85.08C92,-106.12 92,-137.8 92,-137.8 92,-137.8 492.29,-137.8 492.29,-137.8"/>
<polygon fill="black" stroke="black" points="492.29,-141.3 502.29,-137.8 492.29,-134.3 492.29,-141.3"/>
</g>
<!-- AuthComponent -->
<g id="node9" class="node">
<title>AuthComponent</title>
<polygon fill="#ffffb3" stroke="black" points="1544.83,-84.8 1435.17,-84.8 1435.17,-48.8 1544.83,-48.8 1544.83,-84.8"/>
<text text-anchor="middle" x="1490" y="-62.6" font-family="Times,serif" font-size="14.00">AuthComponent</text>
</g>
<!-- AuthModule -->
<g id="node12" class="node">
<title>AuthModule</title>
<polygon fill="#8dd3c7" stroke="black" points="1335.55,-149.8 1332.55,-153.8 1311.55,-153.8 1308.55,-149.8 1248.45,-149.8 1248.45,-113.8 1335.55,-113.8 1335.55,-149.8"/>
<text text-anchor="middle" x="1292" y="-127.6" font-family="Times,serif" font-size="14.00">AuthModule</text>
</g>
<!-- AuthComponent&#45;&gt;AuthModule -->
<g id="edge8" class="edge">
<title>AuthComponent&#45;&gt;AuthModule</title>
<path fill="none" stroke="black" d="M1490,-84.91C1490,-104.14 1490,-131.8 1490,-131.8 1490,-131.8 1345.94,-131.8 1345.94,-131.8"/>
<polygon fill="black" stroke="black" points="1345.94,-128.3 1335.94,-131.8 1345.94,-135.3 1345.94,-128.3"/>
</g>
<!-- LoginComponent -->
<g id="node10" class="node">
<title>LoginComponent</title>
<polygon fill="#ffffb3" stroke="black" points="1417.28,-84.8 1302.72,-84.8 1302.72,-48.8 1417.28,-48.8 1417.28,-84.8"/>
<text text-anchor="middle" x="1360" y="-62.6" font-family="Times,serif" font-size="14.00">LoginComponent</text>
</g>
<!-- LoginComponent&#45;&gt;AuthModule -->
<g id="edge9" class="edge">
<title>LoginComponent&#45;&gt;AuthModule</title>
<path fill="none" stroke="black" d="M1319.19,-84.91C1319.19,-84.91 1319.19,-103.79 1319.19,-103.79"/>
<polygon fill="black" stroke="black" points="1315.69,-103.79 1319.19,-113.79 1322.69,-103.79 1315.69,-103.79"/>
</g>
<!-- SignupComponent -->
<g id="node11" class="node">
<title>SignupComponent</title>
<polygon fill="#ffffb3" stroke="black" points="1284.51,-84.8 1163.49,-84.8 1163.49,-48.8 1284.51,-48.8 1284.51,-84.8"/>
<text text-anchor="middle" x="1224" y="-62.6" font-family="Times,serif" font-size="14.00">SignupComponent</text>
</g>
<!-- SignupComponent&#45;&gt;AuthModule -->
<g id="edge10" class="edge">
<title>SignupComponent&#45;&gt;AuthModule</title>
<path fill="none" stroke="black" d="M1266.36,-84.91C1266.36,-84.91 1266.36,-103.79 1266.36,-103.79"/>
<polygon fill="black" stroke="black" points="1262.86,-103.79 1266.36,-113.79 1269.86,-103.79 1262.86,-103.79"/>
</g>
<!-- AuthRoutingModule -->
<g id="node13" class="node">
<title>AuthRoutingModule</title>
<polygon fill="#8dd3c7" stroke="black" points="1139.17,-84.8 1136.17,-88.8 1115.17,-88.8 1112.17,-84.8 1006.83,-84.8 1006.83,-48.8 1139.17,-48.8 1139.17,-84.8"/>
<text text-anchor="middle" x="1073" y="-62.6" font-family="Times,serif" font-size="14.00">AuthRoutingModule</text>
</g>
<!-- AuthRoutingModule&#45;&gt;AuthModule -->
<g id="edge11" class="edge">
<title>AuthRoutingModule&#45;&gt;AuthModule</title>
<path fill="none" stroke="black" d="M1073,-85.09C1073,-107.01 1073,-140.8 1073,-140.8 1073,-140.8 1238.21,-140.8 1238.21,-140.8"/>
<polygon fill="black" stroke="black" points="1238.21,-144.3 1248.21,-140.8 1238.21,-137.3 1238.21,-144.3"/>
</g>
<!-- ErrorComponent -->
<g id="node14" class="node">
<title>ErrorComponent</title>
<polygon fill="#ffffb3" stroke="black" points="1853.37,-84.8 1742.63,-84.8 1742.63,-48.8 1853.37,-48.8 1853.37,-84.8"/>
<text text-anchor="middle" x="1798" y="-62.6" font-family="Times,serif" font-size="14.00">ErrorComponent</text>
</g>
<!-- ErrorModule -->
<g id="node15" class="node">
<title>ErrorModule</title>
<polygon fill="#8dd3c7" stroke="black" points="1769.58,-149.8 1766.58,-153.8 1745.58,-153.8 1742.58,-149.8 1680.42,-149.8 1680.42,-113.8 1769.58,-113.8 1769.58,-149.8"/>
<text text-anchor="middle" x="1725" y="-127.6" font-family="Times,serif" font-size="14.00">ErrorModule</text>
</g>
<!-- ErrorComponent&#45;&gt;ErrorModule -->
<g id="edge12" class="edge">
<title>ErrorComponent&#45;&gt;ErrorModule</title>
<path fill="none" stroke="black" d="M1756.05,-84.91C1756.05,-84.91 1756.05,-103.79 1756.05,-103.79"/>
<polygon fill="black" stroke="black" points="1752.55,-103.79 1756.05,-113.79 1759.55,-103.79 1752.55,-103.79"/>
</g>
<!-- ErrorRoutingModule -->
<g id="node16" class="node">
<title>ErrorRoutingModule</title>
<polygon fill="#8dd3c7" stroke="black" points="1719.2,-84.8 1716.2,-88.8 1695.2,-88.8 1692.2,-84.8 1584.8,-84.8 1584.8,-48.8 1719.2,-48.8 1719.2,-84.8"/>
<text text-anchor="middle" x="1652" y="-62.6" font-family="Times,serif" font-size="14.00">ErrorRoutingModule</text>
</g>
<!-- ErrorRoutingModule&#45;&gt;ErrorModule -->
<g id="edge13" class="edge">
<title>ErrorRoutingModule&#45;&gt;ErrorModule</title>
<path fill="none" stroke="black" d="M1699.78,-84.91C1699.78,-84.91 1699.78,-103.79 1699.78,-103.79"/>
<polygon fill="black" stroke="black" points="1696.28,-103.79 1699.78,-113.79 1703.28,-103.79 1696.28,-103.79"/>
</g>
<!-- DemoComponent -->
<g id="node17" class="node">
<title>DemoComponent</title>
<polygon fill="#ffffb3" stroke="black" points="2319.55,-84.8 2204.45,-84.8 2204.45,-48.8 2319.55,-48.8 2319.55,-84.8"/>
<text text-anchor="middle" x="2262" y="-62.6" font-family="Times,serif" font-size="14.00">DemoComponent</text>
</g>
<!-- SampleModule -->
<g id="node19" class="node">
<title>SampleModule</title>
<polygon fill="#8dd3c7" stroke="black" points="2175.54,-149.8 2172.54,-153.8 2151.54,-153.8 2148.54,-149.8 2074.46,-149.8 2074.46,-113.8 2175.54,-113.8 2175.54,-149.8"/>
<text text-anchor="middle" x="2125" y="-127.6" font-family="Times,serif" font-size="14.00">SampleModule</text>
</g>
<!-- DemoComponent&#45;&gt;SampleModule -->
<g id="edge14" class="edge">
<title>DemoComponent&#45;&gt;SampleModule</title>
<path fill="none" stroke="black" d="M2262,-84.91C2262,-104.14 2262,-131.8 2262,-131.8 2262,-131.8 2185.62,-131.8 2185.62,-131.8"/>
<polygon fill="black" stroke="black" points="2185.62,-128.3 2175.62,-131.8 2185.62,-135.3 2185.62,-128.3"/>
</g>
<!-- SampleComponent -->
<g id="node18" class="node">
<title>SampleComponent</title>
<polygon fill="#ffffb3" stroke="black" points="2186.83,-84.8 2063.17,-84.8 2063.17,-48.8 2186.83,-48.8 2186.83,-84.8"/>
<text text-anchor="middle" x="2125" y="-62.6" font-family="Times,serif" font-size="14.00">SampleComponent</text>
</g>
<!-- SampleComponent&#45;&gt;SampleModule -->
<g id="edge15" class="edge">
<title>SampleComponent&#45;&gt;SampleModule</title>
<path fill="none" stroke="black" d="M2125,-84.91C2125,-84.91 2125,-103.79 2125,-103.79"/>
<polygon fill="black" stroke="black" points="2121.5,-103.79 2125,-113.79 2128.5,-103.79 2121.5,-103.79"/>
</g>
<!-- SampleRoutingModule -->
<g id="node20" class="node">
<title>SampleRoutingModule</title>
<polygon fill="#8dd3c7" stroke="black" points="2039.16,-84.8 2036.16,-88.8 2015.16,-88.8 2012.16,-84.8 1892.84,-84.8 1892.84,-48.8 2039.16,-48.8 2039.16,-84.8"/>
<text text-anchor="middle" x="1966" y="-62.6" font-family="Times,serif" font-size="14.00">SampleRoutingModule</text>
</g>
<!-- SampleRoutingModule&#45;&gt;SampleModule -->
<g id="edge16" class="edge">
<title>SampleRoutingModule&#45;&gt;SampleModule</title>
<path fill="none" stroke="black" d="M1966,-84.91C1966,-104.14 1966,-131.8 1966,-131.8 1966,-131.8 2064.25,-131.8 2064.25,-131.8"/>
<polygon fill="black" stroke="black" points="2064.25,-135.3 2074.25,-131.8 2064.25,-128.3 2064.25,-135.3"/>
</g>
</g>
</svg>
